<svg width="16" height="16" viewBox="0 0 16 16" fill="none" xmlns="http://www.w3.org/2000/svg">
<path d="M7.79148 0.208525C3.49532 0.208525 0 3.70351 0 8C0 12.2965 3.49532 15.7915 7.79148 15.7915C12.0876 15.7915 15.583 12.2965 15.583 8C15.583 3.70351 12.0876 0.208525 7.79148 0.208525ZM12.1056 3.82614L8.68716 7.52912C8.76168 7.67039 8.80776 7.82927 8.80776 8C8.80776 8.25746 8.70884 8.49019 8.55097 8.66939L9.78135 10.8845C9.87248 11.0478 9.81319 11.2541 9.64991 11.3449C9.59774 11.374 9.54117 11.3876 9.48561 11.3876C9.36637 11.3876 9.25119 11.3246 9.1892 11.2131L7.95916 8.99934C7.90428 9.00849 7.84906 9.01628 7.79148 9.01628C7.23015 9.01628 6.7752 8.56133 6.7752 8C6.7752 7.43868 7.23015 6.98372 7.79148 6.98372C7.93375 6.98372 8.06926 7.01353 8.19223 7.06638L11.6076 3.3661C11.7346 3.22925 11.9487 3.2201 12.0863 3.34713C12.2238 3.47417 12.2323 3.68827 12.1056 3.82614Z" fill="white"/>
</svg>
