<svg width="17" height="14" viewBox="0 0 17 14" fill="none" xmlns="http://www.w3.org/2000/svg">
<path d="M1.59615 4.49439C1.80652 4.64284 2.44065 5.08373 3.49856 5.81683C4.55651 6.54993 5.36697 7.1144 5.92998 7.51027C5.99184 7.55366 6.12325 7.64799 6.32429 7.79338C6.52536 7.93887 6.69243 8.05644 6.82537 8.14612C6.95841 8.23576 7.11925 8.33633 7.30803 8.44766C7.49675 8.55889 7.67465 8.64255 7.84169 8.69794C8.00876 8.75378 8.16341 8.78144 8.30568 8.78144H8.31501H8.32437C8.46665 8.78144 8.62136 8.75375 8.78844 8.69794C8.95541 8.64255 9.13347 8.55879 9.32203 8.44766C9.51068 8.3362 9.67151 8.23573 9.80455 8.14612C9.93759 8.05644 10.1045 7.93887 10.3057 7.79338C10.5067 7.64786 10.6383 7.55366 10.7001 7.51027C11.2692 7.1144 12.717 6.10901 15.0432 4.4942C15.4948 4.17881 15.8721 3.79825 16.1752 3.35278C16.4785 2.9075 16.63 2.44038 16.63 1.95168C16.63 1.5433 16.483 1.19371 16.1891 0.902964C15.8952 0.612148 15.5472 0.466822 15.1452 0.466822H1.48476C1.00841 0.466822 0.641829 0.627653 0.385078 0.949315C0.128359 1.27104 0 1.67318 0 2.15571C0 2.54547 0.170192 2.96783 0.510414 3.42253C0.850604 3.87727 1.21264 4.23459 1.59615 4.49439Z" fill="white"/>
<path d="M15.7019 5.48727C13.6729 6.8606 12.1321 7.92792 11.0805 8.68897C10.7279 8.94871 10.4418 9.15147 10.2221 9.29677C10.0024 9.44216 9.71026 9.59064 9.34517 9.74214C8.98021 9.89387 8.64009 9.96951 8.3245 9.96951H8.31504H8.30572C7.9902 9.96951 7.64988 9.89387 7.28492 9.74214C6.91996 9.59064 6.62759 9.44216 6.40795 9.29677C6.18839 9.15147 5.90222 8.94871 5.54961 8.68897C4.71435 8.07652 3.17697 7.00915 0.93739 5.48727C0.584654 5.25233 0.272223 4.98303 0 4.67993V12.0482C0 12.4567 0.145327 12.8061 0.436142 13.0969C0.726893 13.3878 1.07651 13.5332 1.48486 13.5332H15.1453C15.5535 13.5332 15.9031 13.3878 16.1939 13.0969C16.4848 12.806 16.6301 12.4568 16.6301 12.0482V4.67993C16.364 4.97675 16.0547 5.24605 15.7019 5.48727Z" fill="white"/>
</svg>
