<svg width="13" height="16" viewBox="0 0 13 16" fill="none" xmlns="http://www.w3.org/2000/svg">
<path d="M6.49978 4.57764e-05C3.43822 4.57764e-05 0.94751 2.49112 0.94751 5.55276C0.94751 8.49985 5.98518 15.3853 6.19968 15.6769L6.39987 15.9493C6.41136 15.965 6.4264 15.9778 6.44376 15.9866C6.46112 15.9954 6.48031 16 6.49978 16C6.51934 16.0001 6.53864 15.9955 6.5561 15.9867C6.57356 15.9779 6.58871 15.9651 6.6003 15.9493L6.80036 15.6769C7.01498 15.3853 12.0525 8.49985 12.0525 5.55276C12.0525 2.49112 9.56141 4.57764e-05 6.49978 4.57764e-05ZM6.49978 3.56379C7.59674 3.56379 8.48875 4.45583 8.48875 5.55276C8.48875 6.64912 7.5967 7.54173 6.49978 7.54173C5.40346 7.54173 4.51081 6.64912 4.51081 5.55276C4.51081 4.45583 5.40342 3.56379 6.49978 3.56379Z" fill="white"/>
</svg>
