<svg width="151" height="41" viewBox="0 0 151 41" fill="none" xmlns="http://www.w3.org/2000/svg">
<g clip-path="url(#clip0_10_23)">
<path d="M62.9217 20.1443L56.7441 6.10444H58.9103L64.5864 19.0612H63.3429L69.0591 6.10444H71.0648L64.9073 20.1443H62.9217ZM72.8552 20.1443V6.10444H74.8609V20.1443H72.8552ZM79.0642 20.1443V6.10444H80.7089L89.9953 17.6372H89.1328V6.10444H91.1385V20.1443H89.4939L80.2075 8.61156H81.0699V20.1443H79.0642ZM98.731 20.1443V14.7691L99.192 16.0126L93.1547 6.10444H95.3008L100.375 14.4682H99.212L104.306 6.10444H106.292L100.275 16.0126L100.716 14.7691V20.1443H98.731ZM105.359 20.1443L111.717 6.10444H113.702L120.081 20.1443H117.975L112.298 7.22763H113.101L107.425 20.1443H105.359ZM108.066 16.6344L108.608 15.0298H116.51L117.092 16.6344H108.066ZM126.267 20.3048C125.197 20.3048 124.174 20.1443 123.198 19.8234C122.222 19.4891 121.453 19.0612 120.891 18.5398L121.633 16.9753C122.168 17.4433 122.85 17.8311 123.679 18.1386C124.508 18.4462 125.371 18.5999 126.267 18.5999C127.082 18.5999 127.744 18.5063 128.252 18.3191C128.76 18.1319 129.135 17.8779 129.375 17.557C129.616 17.2227 129.736 16.8483 129.736 16.4338C129.736 15.9524 129.576 15.5646 129.255 15.2705C128.948 14.9763 128.54 14.7423 128.032 14.5685C127.537 14.3813 126.989 14.2208 126.387 14.0871C125.785 13.9534 125.177 13.7996 124.562 13.6258C123.96 13.4386 123.405 13.2046 122.897 12.9238C122.402 12.643 122.001 12.2686 121.694 11.8006C121.386 11.3193 121.232 10.7042 121.232 9.95538C121.232 9.23333 121.42 8.57145 121.794 7.96974C122.182 7.35466 122.77 6.8666 123.559 6.50558C124.361 6.13118 125.377 5.94398 126.608 5.94398C127.423 5.94398 128.232 6.05095 129.034 6.26489C129.837 6.47883 130.532 6.78637 131.12 7.18751L130.459 8.79207C129.857 8.39093 129.222 8.10345 128.553 7.92962C127.885 7.74242 127.236 7.64882 126.608 7.64882C125.819 7.64882 125.17 7.74911 124.662 7.94968C124.154 8.15025 123.78 8.41768 123.539 8.75196C123.312 9.08624 123.198 9.46064 123.198 9.87515C123.198 10.3699 123.352 10.7643 123.659 11.0585C123.98 11.3527 124.388 11.5867 124.883 11.7605C125.391 11.9343 125.946 12.0948 126.547 12.2419C127.149 12.3756 127.751 12.5294 128.353 12.7032C128.968 12.877 129.523 13.1043 130.017 13.3851C130.525 13.6659 130.933 14.0403 131.241 14.5083C131.548 14.9763 131.702 15.578 131.702 16.3134C131.702 17.0221 131.508 17.684 131.12 18.2991C130.733 18.9008 130.131 19.3888 129.315 19.7632C128.513 20.1243 127.497 20.3048 126.267 20.3048ZM132.506 20.1443L138.864 6.10444H140.85L147.228 20.1443H145.122L139.446 7.22763H140.248L134.572 20.1443H132.506ZM135.214 16.6344L135.755 15.0298H143.658L144.24 16.6344H135.214Z" fill="#030C26"/>
<path d="M58.6065 38.8535C58.3133 38.8535 58.032 38.806 57.7626 38.7109C57.5011 38.6158 57.2752 38.4731 57.085 38.2829L57.4773 37.6529C57.6358 37.8035 57.8062 37.9184 57.9884 37.9976C58.1786 38.0848 58.3886 38.1284 58.6184 38.1284C58.8958 38.1284 59.1335 38.0492 59.3317 37.8907C59.5377 37.7401 59.7318 37.4707 59.9141 37.0823L60.3183 36.167L60.4134 36.0363L62.981 30.2473H63.8131L60.6868 37.2369C60.5124 37.641 60.3183 37.962 60.1043 38.1997C59.8983 38.4375 59.6724 38.6039 59.4267 38.699C59.1811 38.802 58.9077 38.8535 58.6065 38.8535ZM60.2707 36.6663L57.3941 30.2473H58.2737L60.8175 35.9768L60.2707 36.6663ZM69.3922 36.5474C68.7899 36.5474 68.247 36.4127 67.7636 36.1433C67.2882 35.8659 66.9117 35.4895 66.6344 35.014C66.357 34.5306 66.2183 33.9798 66.2183 33.3617C66.2183 32.7357 66.357 32.1849 66.6344 31.7094C66.9117 31.2339 67.2882 30.8615 67.7636 30.592C68.2391 30.3226 68.782 30.1879 69.3922 30.1879C70.0103 30.1879 70.5571 30.3226 71.0326 30.592C71.516 30.8615 71.8924 31.2339 72.1618 31.7094C72.4392 32.1849 72.5779 32.7357 72.5779 33.3617C72.5779 33.9798 72.4392 34.5306 72.1618 35.014C71.8924 35.4895 71.516 35.8659 71.0326 36.1433C70.5492 36.4127 70.0024 36.5474 69.3922 36.5474ZM69.3922 35.7985C69.8439 35.7985 70.2441 35.6995 70.5927 35.5014C70.9414 35.2953 71.2148 35.01 71.4129 34.6455C71.619 34.273 71.722 33.8451 71.722 33.3617C71.722 32.8704 71.619 32.4424 71.4129 32.0779C71.2148 31.7134 70.9414 31.432 70.5927 31.2339C70.2441 31.0279 69.8478 30.9249 69.404 30.9249C68.9603 30.9249 68.564 31.0279 68.2153 31.2339C67.8667 31.432 67.5893 31.7134 67.3832 32.0779C67.1772 32.4424 67.0742 32.8704 67.0742 33.3617C67.0742 33.8451 67.1772 34.273 67.3832 34.6455C67.5893 35.01 67.8667 35.2953 68.2153 35.5014C68.564 35.6995 68.9563 35.7985 69.3922 35.7985ZM78.9844 38.8535C78.4138 38.8535 77.867 38.7703 77.344 38.6039C76.821 38.4375 76.397 38.1997 76.0721 37.8907L76.5 37.2488C76.7932 37.5103 77.1538 37.7163 77.5817 37.8669C78.0176 38.0254 78.4772 38.1046 78.9606 38.1046C79.7531 38.1046 80.3356 37.9184 80.708 37.5459C81.0805 37.1814 81.2667 36.6108 81.2667 35.8342V34.277L81.3856 33.2072L81.3024 32.1373V30.2473H82.1107V35.7272C82.1107 36.805 81.8452 37.5935 81.3143 38.0927C80.7912 38.5999 80.0146 38.8535 78.9844 38.8535ZM78.8299 36.2503C78.2355 36.2503 77.7006 36.1235 77.2251 35.8699C76.7497 35.6084 76.3732 35.2478 76.0959 34.7881C75.8264 34.3285 75.6917 33.8015 75.6917 33.2072C75.6917 32.6128 75.8264 32.0898 76.0959 31.6381C76.3732 31.1785 76.7497 30.8218 77.2251 30.5683C77.7006 30.3147 78.2355 30.1879 78.8299 30.1879C79.3846 30.1879 79.8839 30.3028 80.3276 30.5326C80.7714 30.7624 81.1241 31.1032 81.3856 31.5549C81.6471 32.0066 81.7779 32.5574 81.7779 33.2072C81.7779 33.857 81.6471 34.4078 81.3856 34.8595C81.1241 35.3112 80.7714 35.6559 80.3276 35.8936C79.8839 36.1314 79.3846 36.2503 78.8299 36.2503ZM78.9131 35.5014C79.3727 35.5014 79.7808 35.4063 80.1375 35.2161C80.4941 35.018 80.7754 34.7485 80.9814 34.4078C81.1875 34.0591 81.2905 33.6589 81.2905 33.2072C81.2905 32.7555 81.1875 32.3592 80.9814 32.0185C80.7754 31.6777 80.4941 31.4122 80.1375 31.222C79.7808 31.0239 79.3727 30.9249 78.9131 30.9249C78.4614 30.9249 78.0533 31.0239 77.6887 31.222C77.3321 31.4122 77.0508 31.6777 76.8448 32.0185C76.6466 32.3592 76.5476 32.7555 76.5476 33.2072C76.5476 33.6589 76.6466 34.0591 76.8448 34.4078C77.0508 34.7485 77.3321 35.018 77.6887 35.2161C78.0533 35.4063 78.4614 35.5014 78.9131 35.5014ZM90.3908 36.488V35.1091L90.3552 34.8832V32.5772C90.3552 32.0462 90.2046 31.6381 89.9035 31.3528C89.6103 31.0675 89.1704 30.9249 88.584 30.9249C88.1799 30.9249 87.7955 30.9922 87.431 31.1269C87.0664 31.2617 86.7574 31.44 86.5038 31.6619L86.1234 31.0319C86.4404 30.7624 86.8208 30.5564 87.2646 30.4137C87.7083 30.2632 88.1759 30.1879 88.6672 30.1879C89.4755 30.1879 90.0976 30.39 90.5335 30.7941C90.9773 31.1903 91.1992 31.7966 91.1992 32.6128V36.488H90.3908ZM88.2393 36.5474C87.7717 36.5474 87.3636 36.4721 87.0149 36.3216C86.6742 36.1631 86.4127 35.9491 86.2304 35.6797C86.0481 35.4023 85.957 35.0853 85.957 34.7287C85.957 34.4038 86.0323 34.1106 86.1828 33.8491C86.3413 33.5796 86.5949 33.3657 86.9436 33.2072C87.3002 33.0408 87.7757 32.9575 88.3701 32.9575H90.5216V33.5876H88.3938C87.7915 33.5876 87.3715 33.6945 87.1338 33.9085C86.904 34.1225 86.7891 34.388 86.7891 34.7049C86.7891 35.0615 86.9278 35.3468 87.2051 35.5608C87.4825 35.7748 87.8708 35.8818 88.3701 35.8818C88.8455 35.8818 89.2537 35.7748 89.5944 35.5608C89.9431 35.3389 90.1967 35.0219 90.3552 34.6098L90.5454 35.1923C90.3869 35.6044 90.1095 35.9333 89.7133 36.1789C89.325 36.4246 88.8336 36.5474 88.2393 36.5474ZM102.32 36.5474C101.805 36.5474 101.318 36.4761 100.858 36.3335C100.398 36.1829 100.038 35.9967 99.7761 35.7748L100.157 35.1091C100.41 35.2993 100.735 35.4657 101.131 35.6084C101.528 35.7431 101.944 35.8104 102.38 35.8104C102.974 35.8104 103.402 35.7193 103.663 35.537C103.925 35.3468 104.056 35.0972 104.056 34.7881C104.056 34.5583 103.98 34.38 103.83 34.2532C103.687 34.1185 103.497 34.0195 103.259 33.9561C103.021 33.8847 102.756 33.8253 102.463 33.7778C102.17 33.7302 101.876 33.6747 101.583 33.6113C101.298 33.5479 101.036 33.4568 100.799 33.3379C100.561 33.2111 100.367 33.0408 100.216 32.8268C100.073 32.6128 100.002 32.3275 100.002 31.9709C100.002 31.6302 100.097 31.3251 100.287 31.0556C100.478 30.7862 100.755 30.5762 101.12 30.4256C101.492 30.2671 101.944 30.1879 102.475 30.1879C102.879 30.1879 103.283 30.2433 103.687 30.3543C104.091 30.4573 104.424 30.596 104.686 30.7703L104.317 31.4479C104.04 31.2577 103.743 31.123 103.426 31.0437C103.109 30.9566 102.792 30.913 102.475 30.913C101.912 30.913 101.496 31.012 101.227 31.2102C100.965 31.4003 100.834 31.646 100.834 31.9472C100.834 32.1849 100.906 32.3711 101.048 32.5058C101.199 32.6406 101.393 32.7475 101.631 32.8268C101.876 32.8981 102.142 32.9575 102.427 33.0051C102.72 33.0526 103.01 33.1121 103.295 33.1834C103.588 33.2468 103.854 33.3379 104.091 33.4568C104.337 33.5677 104.531 33.7302 104.674 33.9442C104.824 34.1502 104.9 34.4236 104.9 34.7644C104.9 35.1289 104.797 35.4459 104.591 35.7153C104.392 35.9768 104.099 36.1829 103.711 36.3335C103.331 36.4761 102.867 36.5474 102.32 36.5474ZM110.442 36.5474C109.856 36.5474 109.404 36.3889 109.087 36.0719C108.77 35.755 108.612 35.3072 108.612 34.7287V28.8684H109.456V34.6812C109.456 35.0457 109.547 35.327 109.729 35.5251C109.919 35.7233 110.189 35.8223 110.537 35.8223C110.91 35.8223 111.219 35.7153 111.465 35.5014L111.762 36.1076C111.595 36.2582 111.393 36.3691 111.156 36.4404C110.926 36.5118 110.688 36.5474 110.442 36.5474ZM107.494 30.9486V30.2473H111.358V30.9486H107.494ZM117.898 36.5474C117.367 36.5474 116.904 36.4484 116.508 36.2503C116.111 36.0521 115.802 35.755 115.58 35.3587C115.366 34.9625 115.259 34.4672 115.259 33.8728V30.2473H116.103V33.7778C116.103 34.4434 116.266 34.9466 116.591 35.2874C116.924 35.6202 117.387 35.7867 117.982 35.7867C118.417 35.7867 118.794 35.6995 119.111 35.5251C119.436 35.3429 119.681 35.0814 119.848 34.7406C120.022 34.3998 120.109 33.9917 120.109 33.5162V30.2473H120.953V36.488H120.145V34.7763L120.276 35.0853C120.078 35.545 119.769 35.9055 119.349 36.167C118.937 36.4206 118.453 36.5474 117.898 36.5474ZM127.811 36.5474C127.216 36.5474 126.681 36.4127 126.206 36.1433C125.738 35.8738 125.37 35.5014 125.1 35.0259C124.831 34.5425 124.696 33.9878 124.696 33.3617C124.696 32.7277 124.831 32.173 125.1 31.6975C125.37 31.222 125.738 30.8535 126.206 30.592C126.681 30.3226 127.216 30.1879 127.811 30.1879C128.358 30.1879 128.845 30.3107 129.273 30.5564C129.709 30.802 130.053 31.1626 130.307 31.6381C130.568 32.1056 130.699 32.6802 130.699 33.3617C130.699 34.0353 130.572 34.6098 130.319 35.0853C130.065 35.5608 129.721 35.9253 129.285 36.1789C128.857 36.4246 128.365 36.5474 127.811 36.5474ZM127.87 35.7985C128.314 35.7985 128.71 35.6995 129.059 35.5014C129.415 35.2953 129.693 35.01 129.891 34.6455C130.097 34.273 130.2 33.8451 130.2 33.3617C130.2 32.8704 130.097 32.4424 129.891 32.0779C129.693 31.7134 129.415 31.432 129.059 31.2339C128.71 31.0279 128.314 30.9249 127.87 30.9249C127.434 30.9249 127.042 31.0279 126.693 31.2339C126.345 31.432 126.067 31.7134 125.861 32.0779C125.655 32.4424 125.552 32.8704 125.552 33.3617C125.552 33.8451 125.655 34.273 125.861 34.6455C126.067 35.01 126.345 35.2953 126.693 35.5014C127.042 35.6995 127.434 35.7985 127.87 35.7985ZM130.224 36.488V34.6098L130.307 33.3498L130.188 32.0898V27.6678H131.032V36.488H130.224ZM135.403 36.488V30.2473H136.247V36.488H135.403ZM135.831 28.8684C135.657 28.8684 135.51 28.809 135.391 28.6901C135.273 28.5712 135.213 28.4286 135.213 28.2622C135.213 28.0958 135.273 27.9571 135.391 27.8461C135.51 27.7273 135.657 27.6678 135.831 27.6678C136.006 27.6678 136.152 27.7233 136.271 27.8342C136.39 27.9452 136.449 28.0839 136.449 28.2503C136.449 28.4246 136.39 28.5712 136.271 28.6901C136.16 28.809 136.014 28.8684 135.831 28.8684ZM143.16 36.5474C142.558 36.5474 142.015 36.4127 141.532 36.1433C141.056 35.8659 140.68 35.4895 140.402 35.014C140.125 34.5306 139.986 33.9798 139.986 33.3617C139.986 32.7357 140.125 32.1849 140.402 31.7094C140.68 31.2339 141.056 30.8615 141.532 30.592C142.007 30.3226 142.55 30.1879 143.16 30.1879C143.778 30.1879 144.325 30.3226 144.801 30.592C145.284 30.8615 145.661 31.2339 145.93 31.7094C146.207 32.1849 146.346 32.7357 146.346 33.3617C146.346 33.9798 146.207 34.5306 145.93 35.014C145.661 35.4895 145.284 35.8659 144.801 36.1433C144.317 36.4127 143.77 36.5474 143.16 36.5474ZM143.16 35.7985C143.612 35.7985 144.012 35.6995 144.361 35.5014C144.71 35.2953 144.983 35.01 145.181 34.6455C145.387 34.273 145.49 33.8451 145.49 33.3617C145.49 32.8704 145.387 32.4424 145.181 32.0779C144.983 31.7134 144.71 31.432 144.361 31.2339C144.012 31.0279 143.616 30.9249 143.172 30.9249C142.728 30.9249 142.332 31.0279 141.983 31.2339C141.635 31.432 141.357 31.7134 141.151 32.0779C140.945 32.4424 140.842 32.8704 140.842 33.3617C140.842 33.8451 140.945 34.273 141.151 34.6455C141.357 35.01 141.635 35.2953 141.983 35.5014C142.332 35.6995 142.724 35.7985 143.16 35.7985Z" fill="#7F8187"/>
<path d="M7.40552 13.9294C8.01209 10.2187 9.52113 6.72524 11.9415 4.23392C12.3321 7.39099 14.0778 10.2502 16.2201 13.1725C15.6786 15.2784 15.3768 17.4964 15.3442 19.788C12.4919 17.7417 9.58031 15.9336 7.40552 13.9294Z" fill="#5B78CD"/>
<path d="M24.9545 1C19.6906 5.19073 16.1666 12.2092 15.9387 20.2192C19.8385 23.0714 23.5253 26.4282 24.9545 31.4003C26.3807 26.4282 30.0674 23.0714 33.9673 20.2192C33.7394 12.2092 30.2154 5.19073 24.9545 1Z" fill="#5B78CD"/>
<path d="M7.02067 33.0119C2.38704 26.7153 0.99932 18.3794 2.69773 10.8739C6.24544 20.233 28.5644 20.9057 24.9545 41.099C18.445 42.0696 11.6573 39.3085 7.02067 33.0119Z" fill="#5B78CD"/>
<path d="M42.5008 13.9294C41.8943 10.2187 40.3852 6.72524 37.9648 4.23392C37.5743 7.39099 35.8285 10.2502 33.6863 13.1725C34.2278 15.2784 34.5296 17.4964 34.5621 19.788C37.4145 17.7417 40.326 15.9336 42.5008 13.9294Z" fill="#5B78CD"/>
<path d="M43.3251 33.138C47.9587 26.8414 49.3464 18.5055 47.648 11C44.1003 20.3591 21.7814 21.0318 25.3942 41.2251C31.9008 42.1957 38.6885 39.4346 43.3251 33.138Z" fill="#5B78CD"/>
</g>
<defs>
<clipPath id="clip0_10_23">
<rect width="149.719" height="41" fill="white" transform="translate(0.619385)"/>
</clipPath>
</defs>
</svg>
