<svg width="47" height="40" viewBox="0 0 47 40" fill="none" xmlns="http://www.w3.org/2000/svg">
<path d="M5.40552 12.9294C6.01209 9.21868 7.52113 5.72524 9.9415 3.23392C10.3321 6.39099 12.0778 9.25022 14.2201 12.1725C13.6786 14.2784 13.3768 16.4964 13.3442 18.788C10.4919 16.7417 7.58031 14.9336 5.40552 12.9294Z" fill="#5B78CD"/>
<path d="M22.9545 0C17.6906 4.19073 14.1666 11.2092 13.9387 19.2192C17.8385 22.0714 21.5253 25.4282 22.9545 30.4003C24.3807 25.4282 28.0674 22.0714 31.9673 19.2192C31.7394 11.2092 28.2154 4.19073 22.9545 0Z" fill="#5B78CD"/>
<path d="M5.02067 32.0119C0.387041 25.7153 -1.00068 17.3794 0.697726 9.8739C4.24544 19.233 26.5644 19.9057 22.9545 40.099C16.445 41.0696 9.65726 38.3085 5.02067 32.0119Z" fill="#5B78CD"/>
<path d="M40.5008 12.9294C39.8943 9.21868 38.3852 5.72524 35.9648 3.23392C35.5743 6.39099 33.8285 9.25022 31.6863 12.1725C32.2278 14.2784 32.5296 16.4964 32.5621 18.788C35.4145 16.7417 38.326 14.9336 40.5008 12.9294Z" fill="#5B78CD"/>
<path d="M41.3251 32.138C45.9587 25.8414 47.3464 17.5055 45.648 10C42.1003 19.3591 19.7814 20.0318 23.3942 40.2251C29.9008 41.1957 36.6885 38.4346 41.3251 32.138Z" fill="#5B78CD"/>
</svg>
