<svg width="19" height="19" viewBox="0 0 19 19" fill="none" xmlns="http://www.w3.org/2000/svg">
<g clip-path="url(#clip0_3_541)">
<path d="M9.4247 0H9.41998C4.22474 0 0 4.22592 0 9.42234C0 11.4835 0.664275 13.3939 1.79378 14.945L0.619519 18.4454L4.24123 17.2876C5.73114 18.2746 7.50843 18.8447 9.4247 18.8447C14.6199 18.8447 18.8447 14.6176 18.8447 9.42234C18.8447 4.2271 14.6199 0 9.4247 0ZM14.9073 13.3055C14.68 13.9474 13.7778 14.4798 13.0582 14.6353C12.5659 14.7401 11.9228 14.8237 9.75801 13.9262C6.98902 12.779 5.20584 9.9653 5.06686 9.78274C4.93377 9.60019 3.94796 8.29284 3.94796 6.94073C3.94796 5.58863 4.63461 4.93024 4.9114 4.64757C5.13871 4.41554 5.51442 4.30954 5.87483 4.30954C5.99143 4.30954 6.09625 4.31543 6.19048 4.32014C6.46726 4.33192 6.60624 4.34841 6.7888 4.78537C7.01611 5.33305 7.56967 6.68515 7.63563 6.82413C7.70276 6.96311 7.7699 7.15156 7.67567 7.33411C7.58734 7.52256 7.50961 7.60618 7.37063 7.76636C7.23165 7.92654 7.09973 8.04903 6.96075 8.22099C6.83355 8.37057 6.68986 8.53075 6.85004 8.80753C7.01022 9.07843 7.56378 9.98179 8.37882 10.7073C9.43058 11.6437 10.2833 11.9428 10.5884 12.07C10.8157 12.1642 11.0866 12.1419 11.2526 11.9652C11.4635 11.7379 11.7237 11.361 11.9888 10.99C12.1772 10.7238 12.4151 10.6908 12.6648 10.785C12.9192 10.8734 14.2654 11.5388 14.5422 11.6766C14.819 11.8156 15.0015 11.8816 15.0687 11.9982C15.1346 12.1148 15.1346 12.6624 14.9073 13.3055Z" fill="white"/>
</g>
<defs>
<clipPath id="clip0_3_541">
<rect width="18.8447" height="18.8447" fill="white"/>
</clipPath>
</defs>
</svg>
