<svg width="20" height="19" viewBox="0 0 20 19" fill="none" xmlns="http://www.w3.org/2000/svg">
<g clip-path="url(#clip0_3_550)">
<path d="M19.5345 3.57931C18.8337 3.88672 18.087 4.09048 17.3085 4.18941C18.1094 3.71123 18.7206 2.9598 19.008 2.05407C18.2613 2.49928 17.4369 2.81375 16.5582 2.98924C15.8492 2.23428 14.8386 1.76669 13.7362 1.76669C11.5974 1.76669 9.87542 3.50276 9.87542 5.63103C9.87542 5.93726 9.90133 6.2317 9.96494 6.51202C6.7531 6.35537 3.91108 4.816 2.00188 2.47101C1.66856 3.04931 1.47305 3.71123 1.47305 4.42379C1.47305 5.76176 2.16206 6.9478 3.1891 7.63445C2.5684 7.62268 1.95948 7.44247 1.44361 7.15863C1.44361 7.1704 1.44361 7.18572 1.44361 7.20103C1.44361 9.07843 2.78276 10.6378 4.53885 10.9971C4.22437 11.083 3.88164 11.1243 3.52594 11.1243C3.27861 11.1243 3.02892 11.1101 2.79453 11.0583C3.2951 12.5883 4.71551 13.713 6.40447 13.7496C5.09005 14.7778 3.42112 15.3973 1.61439 15.3973C1.29756 15.3973 0.99369 15.3832 0.689819 15.3443C2.40115 16.4479 4.42931 17.078 6.61647 17.078C13.7256 17.078 17.6123 11.189 17.6123 6.08448C17.6123 5.9137 17.6065 5.74881 17.5982 5.5851C18.365 5.04095 19.0092 4.36137 19.5345 3.57931Z" fill="white"/>
</g>
<defs>
<clipPath id="clip0_3_550">
<rect width="18.8447" height="18.8447" fill="white" transform="translate(0.689362)"/>
</clipPath>
</defs>
</svg>
