<svg width="20" height="19" viewBox="0 0 20 19" fill="none" xmlns="http://www.w3.org/2000/svg">
<g clip-path="url(#clip0_3_546)">
<path d="M1.17739 9.08582L5.51958 10.7065L7.20027 16.1116C7.30781 16.4577 7.73113 16.5857 8.0121 16.356L10.4325 14.3828C10.6862 14.1761 11.0476 14.1658 11.3127 14.3582L15.6783 17.5277C15.9789 17.7462 16.4047 17.5815 16.4801 17.2183L19.6781 1.83533C19.7604 1.43859 19.3705 1.10761 18.9928 1.25372L1.1723 8.12832C0.732528 8.29792 0.73636 8.92055 1.17739 9.08582ZM6.92941 9.84375L15.4157 4.61706C15.5682 4.5234 15.7251 4.72962 15.5941 4.85111L8.59051 11.3613C8.34434 11.5905 8.18554 11.8971 8.14056 12.23L7.90199 13.998C7.87039 14.2341 7.53879 14.2575 7.47365 14.029L6.5561 10.805C6.45101 10.4373 6.60415 10.0445 6.92941 9.84375Z" fill="white"/>
</g>
<defs>
<clipPath id="clip0_3_546">
<rect width="18.8447" height="18.8447" fill="white" transform="translate(0.844681)"/>
</clipPath>
</defs>
</svg>
